<?xml version="1.0" encoding="UTF-8" standalone="no"?>
<svg
   xmlns:dc="http://purl.org/dc/elements/1.1/"
   xmlns:cc="http://creativecommons.org/ns#"
   xmlns:rdf="http://www.w3.org/1999/02/22-rdf-syntax-ns#"
   xmlns:svg="http://www.w3.org/2000/svg"
   xmlns="http://www.w3.org/2000/svg"
   xmlns:sodipodi="http://sodipodi.sourceforge.net/DTD/sodipodi-0.dtd"
   xmlns:inkscape="http://www.inkscape.org/namespaces/inkscape"
   inkscape:version="1.0.2 (e86c870879, 2021-01-15)"
   id="svg8"
   version="1.1"
   viewBox="0 0 76.90044 78.045853"
   height="294.97644"
   width="290.64734"
   sodipodi:docname="awful.svg">
  <defs
     id="defs2" />
  <sodipodi:namedview
     gridtolerance="20"
     objecttolerance="20"
     borderlayer="true"
     showborder="false"
     inkscape:pagecheckerboard="false"
     units="px"
     showgrid="false"
     inkscape:document-rotation="0"
     inkscape:current-layer="layer2"
     inkscape:document-units="px"
     inkscape:cy="161.39659"
     inkscape:cx="226.34213"
     inkscape:zoom="1.979899"
     inkscape:pageshadow="2"
     inkscape:pageopacity="0"
     borderopacity="1.0"
     bordercolor="#666666"
     pagecolor="#575757"
     id="base"
     inkscape:window-width="2548"
     inkscape:window-height="1408"
     inkscape:window-x="6"
     inkscape:window-y="26"
     inkscape:window-maximized="1"
     fit-margin-top="0"
     fit-margin-left="0"
     fit-margin-right="0"
     fit-margin-bottom="0" />
  <metadata
     id="metadata5">
    <rdf:RDF>
      <cc:Work
         rdf:about="">
        <dc:format>image/svg+xml</dc:format>
        <dc:type
           rdf:resource="http://purl.org/dc/dcmitype/StillImage" />
        <dc:title />
        <dc:creator>
          <cc:Agent>
            <dc:title>Damodar Lohani</dc:title>
          </cc:Agent>
        </dc:creator>
      </cc:Work>
    </rdf:RDF>
  </metadata>
  <g
     inkscape:groupmode="layer"
     id="layer2"
     inkscape:label="Layer 1"
     transform="translate(-402.84928,-82.559098)">
    <ellipse
       style="fill:#ffc10e;stroke:none;stroke-width:1.5875;stroke-linecap:round;stroke-linejoin:round;paint-order:fill markers stroke;stop-color:#000000;fill-opacity:1"
       id="circle915"
       cx="441.2995"
       cy="121.58202"
       rx="37.656471"
       ry="38.229176" />
    <path
       id="path921"
       style="fill:#333333;stroke:none;stroke-width:0.793749;stroke-linecap:round;stroke-linejoin:round;paint-order:fill markers stroke;stop-color:#000000;fill-opacity:1"
       d="m 423.16902,137.43506 c 12.32047,-5.14811 24.50344,-5.15662 36.54975,0 0.87591,0.37495 1.71587,0.67015 1.71587,1.50259 0,0.83242 -0.82416,1.837 -1.71587,1.50259 -12.1869,-4.57036 -24.38804,-4.71756 -36.54975,0 -0.888,0.34446 -1.71589,-0.67017 -1.71589,-1.50259 0,-0.83244 0.83682,-1.13527 1.71589,-1.50259 z"
       sodipodi:nodetypes="sssssss" />
    <text
       xml:space="preserve"
       style="font-size:28.2223px;line-height:1.25;font-family:'Open Sans';-inkscape-font-specification:'Open Sans, Normal';font-variant-ligatures:none;stroke-width:0.264583"
       x="339.35574"
       y="119.28992"
       id="text925"><tspan
         sodipodi:role="line"
         id="tspan923"
         x="339.35574"
         y="119.28992"
         style="stroke-width:0.264583" /></text>
    <g
       aria-label="x"
       id="text929"
       style="font-size:28.2223px;line-height:1.25;font-family:'Open Sans';-inkscape-font-specification:'Open Sans, Normal';font-variant-ligatures:none;fill:#333333;stroke-width:1.37934389;fill-opacity:1;stroke:#333333;stroke-opacity:1"
       transform="matrix(0.57112809,0,0,0.57981421,219.38239,55.432358)">
      <path
         d="m 348.89939,99.740104 q 0.42334,0 0.67734,0.366886 l 9.99069,12.92582 q 0.19756,0.22578 0.19756,0.508 0,0.33867 -0.254,0.59267 -0.25401,0.254 -0.59267,0.254 -0.39511,0 -0.70556,-0.36689 l -10.01892,-12.92582 q -0.16933,-0.19755 -0.16933,-0.508 0,-0.36689 0.254,-0.592665 0.28222,-0.254001 0.62089,-0.254001 z m 0,14.647376 q -0.28222,0 -0.56445,-0.19756 -0.254,-0.19755 -0.254,-0.56444 0,-0.31045 0.19756,-0.53623 l 4.76957,-6.12424 0.93133,1.35467 -4.40267,5.72913 q -0.254,0.33867 -0.67734,0.33867 z m 10.01892,-14.647376 q 0.36689,0 0.56444,0.225778 0.22578,0.197558 0.22578,0.507998 0,0.14112 -0.0564,0.28223 -0.0282,0.14111 -0.14111,0.254 l -4.76957,6.26535 -0.87489,-1.35467 4.34623,-5.8138 q 0.31045,-0.366886 0.70556,-0.366886 z"
         style="font-style:normal;font-variant:normal;font-weight:normal;font-stretch:normal;font-family:Quicksand;-inkscape-font-specification:Quicksand;fill:#333333;stroke-width:1.37934389;fill-opacity:1;stroke:#333333;stroke-opacity:1"
         id="path931" />
    </g>
    <g
       aria-label="x"
       id="g936"
       style="font-size:28.2223px;line-height:1.25;font-family:'Open Sans';-inkscape-font-specification:'Open Sans, Normal';font-variant-ligatures:none;fill:#333332;stroke-width:1.37934389;fill-opacity:1;stroke:#333333;stroke-opacity:1"
       transform="matrix(0.57112809,0,0,0.57981421,259.75547,55.432358)">
      <path
         d="m 348.89939,99.740104 q 0.42334,0 0.67734,0.366886 l 9.99069,12.92582 q 0.19756,0.22578 0.19756,0.508 0,0.33867 -0.254,0.59267 -0.25401,0.254 -0.59267,0.254 -0.39511,0 -0.70556,-0.36689 l -10.01892,-12.92582 q -0.16933,-0.19755 -0.16933,-0.508 0,-0.36689 0.254,-0.592665 0.28222,-0.254001 0.62089,-0.254001 z m 0,14.647376 q -0.28222,0 -0.56445,-0.19756 -0.254,-0.19755 -0.254,-0.56444 0,-0.31045 0.19756,-0.53623 l 4.76957,-6.12424 0.93133,1.35467 -4.40267,5.72913 q -0.254,0.33867 -0.67734,0.33867 z m 10.01892,-14.647376 q 0.36689,0 0.56444,0.225778 0.22578,0.197558 0.22578,0.507998 0,0.14112 -0.0564,0.28223 -0.0282,0.14111 -0.14111,0.254 l -4.76957,6.26535 -0.87489,-1.35467 4.34623,-5.8138 q 0.31045,-0.366886 0.70556,-0.366886 z"
         style="font-style:normal;font-variant:normal;font-weight:normal;font-stretch:normal;font-family:Quicksand;-inkscape-font-specification:Quicksand;fill:#333332;stroke-width:1.37934389;fill-opacity:1;stroke:#333333;stroke-opacity:1"
         id="path934" />
    </g>
  </g>
</svg>
